<svg width="89" height="113" viewBox="0 0 89 113" fill="none" xmlns="http://www.w3.org/2000/svg">
<path d="M45.3626 -7.69684e-06C21.0933 -3.45346e-06 0.934304 19.4986 0.433603 43.4572C-0.0549191 66.833 39.6904 109.551 41.3784 111.343C41.8004 111.792 42.4076 112.061 43.0207 112.061C43.6337 112.061 44.2522 111.792 44.6929 111.343C46.4558 109.551 87.9866 66.833 88.4752 43.4571C88.9759 19.4986 69.6319 -1.19402e-05 45.3626 -7.69684e-06ZM44.0679 61.9507C33.7264 61.9507 25.486 53.6545 25.6991 43.4574C25.9124 33.2483 34.4998 24.9422 44.8413 24.9422C55.1839 24.9422 63.4241 33.2483 63.2108 43.4574C62.9977 53.6545 54.4105 61.9507 44.0679 61.9507Z" fill="white" fill-opacity="0.8"/>
</svg>
